<?xml version="1.0" encoding="UTF-8"?>
<svg id="katman_1" xmlns="http://www.w3.org/2000/svg" viewBox="0 0 285.26 152.61">
  <defs>
    <style>
      .cls-1 {
        fill: #3f3f3e;
      }
    </style>
  </defs>
  <path class="cls-1" d="M174.85,110.2c-6.1,2.51-10.65-6.29-19.62-28.08h0c-8.96-21.81-11.92-31.26-5.82-33.77,6.1-2.51,10.65,6.29,19.62,28.08h0c8.96,21.81,11.92,31.26,5.82,33.77M162.13,41.97c-22.24,0-41.75,14.21-41.75,37.31s19.51,37.31,41.75,37.31,41.75-14.2,41.75-37.31-19.51-37.31-41.75-37.31"/>
  <path class="cls-1" d="M25.41,37.62c9.25,0,16.35-6.7,16.35-15.27s-7.1-15.28-16.35-15.28-16.08,6.57-16.08,15.28,6.83,15.27,16.08,15.27"/>
  <rect class="cls-1" x="9.29" y="43.44" width="32.46" height="71.74"/>
  <polygon class="cls-1" points="114.61 43.44 99.93 79.25 81.37 43.44 47.3 43.44 84.88 115.94 72.1 147.09 83.42 147.09 125.93 43.44 114.61 43.44"/>
  <rect class="cls-1" x="110.08" y="132.59" width="1.11" height="14.6"/>
  <polygon class="cls-1" points="127.73 147.19 126.75 147.19 116.49 134.48 116.49 147.19 115.38 147.19 115.38 132.59 116.36 132.59 126.64 145.38 126.64 132.59 127.73 132.59 127.73 147.19"/>
  <polygon class="cls-1" points="143.17 147.19 142.06 147.19 142.06 141.87 135.89 132.59 137.13 132.59 142.62 140.8 148.09 132.59 149.36 132.59 143.17 141.87 143.17 147.19"/>
  <path class="cls-1" d="M164.31,139.89c0-3.66-2.79-6.52-6.36-6.52s-6.39,2.86-6.39,6.52,2.79,6.52,6.39,6.52,6.36-2.83,6.36-6.52M165.4,139.89c0,4.23-3.27,7.54-7.45,7.54s-7.48-3.31-7.48-7.54,3.27-7.54,7.48-7.54,7.45,3.33,7.45,7.54"/>
  <path class="cls-1" d="M180.68,140.89c0,3.92-2.4,6.54-5.97,6.54s-6.04-2.61-6.04-6.54v-8.3h1.11v8.3c0,3.31,1.96,5.49,4.93,5.49s4.88-2.18,4.88-5.49v-8.3h1.09v8.3Z"/>
  <path class="cls-1" d="M191.32,139.5c2.07,0,3.44-1.18,3.44-2.96s-1.37-2.94-3.44-2.94h-5.54v5.9h5.54ZM195,147.19l-6.01-6.71h-3.21v6.71h-1.11v-14.6h6.65c2.72,0,4.53,1.57,4.53,3.94s-1.81,3.94-4.53,3.94h-.94l6.05,6.71h-1.44Z"/>
  <path class="cls-1" d="M217.93,139.89c0-3.66-2.79-6.52-6.36-6.52s-6.39,2.86-6.39,6.52,2.79,6.52,6.39,6.52,6.36-2.83,6.36-6.52M219.02,139.89c0,4.23-3.27,7.54-7.45,7.54s-7.47-3.31-7.47-7.54,3.27-7.54,7.47-7.54,7.45,3.33,7.45,7.54"/>
  <path class="cls-1" d="M229.13,139.5c2.07,0,3.44-1.18,3.44-2.96s-1.37-2.94-3.44-2.94h-5.54v5.9h5.54ZM232.82,147.19l-6.01-6.71h-3.21v6.71h-1.11v-14.6h6.65c2.72,0,4.53,1.57,4.53,3.94s-1.81,3.94-4.53,3.94h-.94l6.06,6.71h-1.44Z"/>
  <rect class="cls-1" x="237.05" y="132.59" width="1.11" height="14.6"/>
  <path class="cls-1" d="M256.4,139.41c.02.17.02.35.02.48,0,4.18-2.92,7.54-7.28,7.54s-7.52-3.31-7.52-7.54,3.29-7.54,7.5-7.54c3.22,0,5.75,1.59,6.8,4.12l-.98.37c-.98-2.18-3.12-3.46-5.82-3.46-3.6,0-6.38,2.86-6.38,6.52s2.81,6.52,6.43,6.52,5.97-2.64,6.19-5.99h-7.08v-1h8.13Z"/>
  <rect class="cls-1" x="259.89" y="132.59" width="1.11" height="14.6"/>
  <polygon class="cls-1" points="277.54 147.19 276.56 147.19 266.3 134.48 266.3 147.19 265.19 147.19 265.19 132.59 266.17 132.59 276.45 145.38 276.45 132.59 277.54 132.59 277.54 147.19"/>
</svg>