<svg width="192" height="42" viewBox="0 0 192 42" fill="none" xmlns="http://www.w3.org/2000/svg">
<path d="M24.189 40.7877C22.2663 41.937 19.789 41.2969 18.6512 39.3546L10.5138 25.4605H8.16622V37.696C8.16622 38.5108 7.80616 39.2891 7.17245 39.7984C3.78066 42.5117 0 40.133 0 36.8595V2.61152C0 1.17118 1.1594 0 2.58525 0H12.631C19.9115 0 25.8093 5.29578 25.8093 12.7302C25.8093 17.8005 23.0656 21.8742 19.0185 23.9547L25.6005 35.1936C26.7383 37.1359 26.1045 39.6383 24.1818 40.7877M8.17342 17.946H12.3862C15.2955 17.946 17.6575 15.7782 17.6575 12.7302C17.6575 9.68225 15.2955 7.51448 12.3862 7.51448H8.17342V17.946Z" fill="white"/>
<path d="M78.5033 37.2044V4.16906C78.5033 1.84242 80.2993 0.00752841 82.5121 0.00752841C84.071 0.00752841 85.2636 0.866257 85.9246 1.7837L103.289 25.8281V4.2498C103.289 1.95251 105.07 0.0295476 107.312 0.000189382C109.611 -0.0218293 111.428 1.87912 111.414 4.16172V37.1971C111.428 39.4577 109.568 41.3586 107.413 41.3586C105.918 41.3586 104.596 40.4999 103.943 39.5825L86.6358 15.6041V37.1971C86.6358 39.4577 84.7823 41.3586 82.5049 41.3586C80.2275 41.3586 78.4961 39.5237 78.4961 37.1971" fill="white"/>
<path d="M119.855 20.6685C119.855 8.44186 129.072 0 140.432 0C146.014 0 151.09 2.01855 154.869 5.7024C155.636 6.44494 156.085 7.51189 156.006 8.67976C155.875 10.5109 154.398 12.0032 152.559 12.1546C151.394 12.2483 150.329 11.8157 149.576 11.0732C147.209 8.72302 144.132 7.46142 140.736 7.46142C133.735 7.46142 128.066 12.861 128.066 20.6829C128.066 28.5048 133.605 33.9044 140.439 33.9044C145.37 33.9044 149.576 31.0064 151.191 26.4502H146.898C144.856 26.4502 143.133 24.857 143.082 22.8312C143.024 20.7262 144.718 19.0032 146.825 19.0032H155.484C157.982 19.0032 159.582 20.2936 159.524 22.7952C159.271 33.3061 151.198 41.3586 140.447 41.3586C129.079 41.3586 119.87 32.9168 119.87 20.6901" fill="white"/>
<path d="M176.14 10.0215V7.81554H188.273C189.311 7.81554 190.198 7.44788 190.919 6.70534C191.64 5.9628 192 5.0905 192 4.08844C192 3.08637 191.64 2.1636 190.919 1.44269C190.198 0.721783 189.318 0.361328 188.273 0.361328H172.052C170.928 0.361328 169.969 0.75062 169.169 1.53641C168.369 2.315 167.965 3.28823 167.965 4.44889V9.92781C167.965 12.2203 169.839 14.1523 172.139 14.1091C174.359 14.0658 176.14 12.2564 176.14 10.0215Z" fill="white"/>
<path d="M190.918 34.6114C190.197 33.8905 189.318 33.5301 188.272 33.5301H176.132V26.3786C176.147 26.2921 176.14 26.4651 176.14 26.3786H178.814C180.89 26.3786 182.57 24.7494 182.57 22.7308C182.57 20.7195 180.89 19.083 178.814 19.083H171.699C169.622 19.083 167.943 20.7123 167.943 22.7308C167.943 22.8245 167.943 22.9255 167.957 23.0192C167.943 23.1562 167.936 23.2859 167.936 23.4229V32.0666C167.936 32.2252 167.943 32.3766 167.964 32.528V36.8895C167.964 38.0069 168.361 38.9729 169.168 39.7731C169.969 40.5734 170.927 40.9771 172.052 40.9771H188.272C189.311 40.9771 190.197 40.6094 190.918 39.8669C191.639 39.1243 192 38.252 192 37.25C192 36.2479 191.639 35.3251 190.918 34.6042V34.6114Z" fill="white"/>
<path d="M58.2288 21.599C61.0764 21.599 63.0084 18.7009 61.9126 16.0696L56.34 2.69672C55.72 1.20444 54.1773 0.115861 52.4399 0.187952C50.7457 0.115861 49.1453 1.20444 48.5253 2.69672L34.8857 35.563C33.9846 37.7258 35.0659 40.0687 37.0484 40.9122C38.9084 41.698 41.446 41.0347 42.3976 38.6918L44.5531 33.3715H44.5603L48.6623 23.221L52.4255 13.9285L54.5233 19.0974C55.1361 20.6041 56.5995 21.5918 58.2216 21.5918L58.2288 21.599Z" fill="white"/>
<path d="M66.8948 28.0289C66.3614 26.7529 65.1142 25.9238 63.7373 25.9238H57.2923H57.1409C55.1584 25.9238 53.5508 27.5315 53.5508 29.514C53.5508 31.6334 55.2882 33.3708 57.4077 33.3708H60.3129L62.4684 38.6912C63.2687 40.6665 65.6549 41.8127 67.8176 40.9116C69.8578 40.0609 70.8671 37.5521 70.038 35.5624L66.8948 28.0217V28.0289Z" fill="white"/>
</svg>
