<svg width="134" height="29" viewBox="0 0 134 29" fill="none" xmlns="http://www.w3.org/2000/svg">
<path d="M16.9003 28.4628C15.557 29.2577 13.8262 28.815 13.0312 27.4716L7.34578 17.8617H5.70556V26.3245C5.70556 26.888 5.45399 27.4263 5.01123 27.7785C2.64146 29.6552 0 28.01 0 25.7459V2.05821C0 1.062 0.810049 0.251953 1.80626 0.251953H8.825C13.9117 0.251953 18.0324 3.91478 18.0324 9.05683C18.0324 12.5637 16.1154 15.3813 13.2878 16.8202L17.8865 24.5937C18.6814 25.937 18.2387 27.6678 16.8953 28.4628M5.71059 12.6643H8.65394C10.6866 12.6643 12.3369 11.165 12.3369 9.05683C12.3369 6.94869 10.6866 5.44935 8.65394 5.44935H5.71059V12.6643Z" fill="#253746"/>
<path d="M54.923 25.7502V3.10403C54.923 1.50909 56.1808 0.251255 57.7305 0.251255C58.8223 0.251255 59.6575 0.839923 60.1204 1.46884L72.2812 17.9516V3.15938C72.2812 1.58456 73.529 0.266349 75.0987 0.246224C76.7088 0.23113 77.9817 1.53425 77.9717 3.099V25.7451C77.9817 27.2948 76.6786 28.5979 75.1692 28.5979C74.1227 28.5979 73.1969 28.0093 72.739 27.3803L60.6185 10.9429V25.7451C60.6185 27.2948 59.3204 28.5979 57.7255 28.5979C56.1305 28.5979 54.918 27.3401 54.918 25.7451" fill="#253746"/>
<path d="M83.8125 14.425C83.8125 5.89184 90.2174 0.00012207 98.1116 0.00012207C101.991 0.00012207 105.518 1.4089 108.144 3.97993C108.677 4.49816 108.989 5.2428 108.934 6.05788C108.844 7.33584 107.817 8.37733 106.539 8.48299C105.729 8.5484 104.989 8.24652 104.466 7.72829C102.821 6.08807 100.683 5.20758 98.3229 5.20758C93.4576 5.20758 89.5181 8.97606 89.5181 14.4351C89.5181 19.8941 93.367 23.6626 98.1166 23.6626C101.543 23.6626 104.466 21.64 105.588 18.4602H102.605C101.186 18.4602 99.9883 17.3482 99.9531 15.9344C99.9128 14.4653 101.09 13.2628 102.554 13.2628H108.572C110.308 13.2628 111.42 14.1634 111.379 15.9093C111.203 23.245 105.593 28.865 98.1217 28.865C90.2224 28.865 83.8226 22.9733 83.8226 14.4401" fill="#253746"/>
<path d="M122.93 6.99397V5.45438H131.398C132.122 5.45438 132.741 5.19778 133.244 4.67955C133.748 4.16132 133.999 3.55252 133.999 2.85317C133.999 2.15381 133.748 1.50979 133.244 1.00666C132.741 0.503521 132.127 0.251953 131.398 0.251953H120.077C119.292 0.251953 118.623 0.523647 118.065 1.07206C117.506 1.61545 117.225 2.29468 117.225 3.10473V6.92857C117.225 8.52854 118.533 9.87694 120.138 9.84675C121.687 9.81657 122.93 8.55369 122.93 6.99397Z" fill="#253746"/>
<path d="M133.245 24.156C132.742 23.6529 132.128 23.4013 131.399 23.4013H122.926V18.4102C122.936 18.3498 122.931 18.4706 122.931 18.4102H124.797C126.246 18.4102 127.419 17.2731 127.419 15.8643C127.419 14.4606 126.246 13.3185 124.797 13.3185H119.831C118.382 13.3185 117.21 14.4556 117.21 15.8643C117.21 15.9298 117.21 16.0002 117.22 16.0656C117.21 16.1612 117.205 16.2518 117.205 16.3474V22.38C117.205 22.4906 117.21 22.5963 117.225 22.702V25.7459C117.225 26.5258 117.502 27.2 118.065 27.7585C118.624 28.317 119.293 28.5987 120.078 28.5987H131.399C132.123 28.5987 132.742 28.3421 133.245 27.8239C133.748 27.3057 134 26.6969 134 25.9975C134 25.2981 133.748 24.6541 133.245 24.151V24.156Z" fill="#253746"/>
<path d="M40.6388 15.0744C42.6262 15.0744 43.9746 13.0518 43.2098 11.2153L39.3206 1.88218C38.8879 0.840688 37.8112 0.0809525 36.5986 0.131266C35.4162 0.0809525 34.2993 0.840688 33.8666 1.88218L24.3473 24.8201C23.7183 26.3296 24.473 27.9647 25.8567 28.5534C27.1548 29.1018 28.9258 28.6389 29.5899 27.0038L31.0943 23.2906H31.0993L33.9622 16.2065L36.5885 9.72104L38.0527 13.3285C38.4803 14.3801 39.5017 15.0694 40.6338 15.0694L40.6388 15.0744Z" fill="#253746"/>
<path d="M46.6861 19.5619C46.3138 18.6714 45.4433 18.0928 44.4824 18.0928H39.9843H39.8787C38.495 18.0928 37.373 19.2148 37.373 20.5984C37.373 22.0776 38.5856 23.2902 40.0648 23.2902H42.0925L43.5968 27.0033C44.1553 28.3819 45.8207 29.1819 47.3301 28.553C48.754 27.9593 49.4584 26.2084 48.8798 24.8197L46.6861 19.5569V19.5619Z" fill="#253746"/>
</svg>
